<svg viewBox="0 0 800 400" xmlns="http://www.w3.org/2000/svg">
  <defs>
    <style>
      .node { fill: #4a90e2; stroke: #2c5aa0; stroke-width: 2; }
      .text { fill: white; font-family: Arial, sans-serif; font-size: 12px; text-anchor: middle; }
      .arrow { stroke: #333; stroke-width: 2; fill: none; marker-end: url(#arrowhead); }
      .decision { fill: #f39c12; stroke: #d68910; }
      .output { fill: #27ae60; stroke: #1e8449; }
    </style>
    <marker id="arrowhead" markerWidth="10" markerHeight="7" refX="9" refY="3.5" orient="auto">
      <polygon points="0 0, 10 3.5, 0 7" fill="#333" />
    </marker>
  </defs>
  
  <!-- PDF Input -->
  <rect x="50" y="50" width="80" height="40" class="node" rx="5"/>
  <text x="90" y="75" class="text">PDF</text>
  
  <!-- Extract -->
  <rect x="180" y="50" width="80" height="40" class="node" rx="5"/>
  <text x="220" y="75" class="text">Extract</text>
  
  <!-- Preprocess -->
  <rect x="310" y="50" width="90" height="40" class="node" rx="5"/>
  <text x="355" y="75" class="text">Preprocess</text>
  
  <!-- List of Tables -->
  <rect x="450" y="50" width="100" height="40" class="node" rx="5"/>
  <text x="500" y="70" class="text">List of</text>
  <text x="500" y="85" class="text">Tables</text>
  
  <!-- GenAI Processing -->
  <rect x="400" y="150" width="120" height="50" class="decision" rx="5"/>
  <text x="460" y="170" class="text">Send to GenAI</text>
  <text x="460" y="185" class="text">Extract Key Metrics</text>
  
  <!-- GenAI CSV Tables -->
  <rect x="250" y="250" width="120" height="40" class="node" rx="5"/>
  <text x="310" y="275" class="text">GenAI CSV Tables</text>
  
  <!-- Final CSV Output -->
  <rect x="50" y="320" width="120" height="40" class="output" rx="5"/>
  <text x="110" y="345" class="text">Final CSV Output</text>
  
  <!-- Generate Summary Report -->
  <rect x="450" y="250" width="140" height="50" class="decision" rx="5"/>
  <text x="520" y="270" class="text">Generate</text>
  <text x="520" y="285" class="text">Summary Report</text>
  
  <!-- Final Summary Report -->
  <rect x="630" y="320" width="120" height="50" class="output" rx="5"/>
  <text x="690" y="340" class="text">Final Summary</text>
  <text x="690" y="355" class="text">Report</text>
  
  <!-- Arrows -->
  <line x1="130" y1="70" x2="180" y2="70" class="arrow"/>
  <line x1="260" y1="70" x2="310" y2="70" class="arrow"/>
  <line x1="400" y1="70" x2="450" y2="70" class="arrow"/>
  
  <!-- PDF to GenAI -->
  <line x1="500" y1="90" x2="460" y2="150" class="arrow"/>
  
  <!-- GenAI to CSV Tables -->
  <line x1="430" y1="200" x2="340" y2="250" class="arrow"/>
  
  <!-- CSV Tables to Final Output -->
  <line x1="250" y1="270" x2="170" y2="320" class="arrow"/>
  
  <!-- CSV Tables to Summary -->
  <line x1="370" y1="270" x2="450" y2="275" class="arrow"/>
  
  <!-- Summary to Final Report -->
  <line x1="590" y1="275" x2="630" y2="340" class="arrow"/>
  
  <!-- Labels -->
  <text x="480" y="125" style="font-size: 10px; fill: #666;">Send to GenAI</text>
  <text x="300" y="230" style="font-size: 10px; fill: #666;">Save</text>
  <text x="410" y="285" style="font-size: 10px; fill: #666;">Analyze</text>
</svg>